<?xml version="1.0" encoding="UTF-8" standalone="no"?>
<!DOCTYPE svg PUBLIC "-//W3C//DTD SVG 1.1//EN" "http://www.w3.org/Graphics/SVG/1.1/DTD/svg11.dtd">
<svg width="100%" height="100%" viewBox="0 0 576 512" version="1.1" xmlns="http://www.w3.org/2000/svg" xmlns:xlink="http://www.w3.org/1999/xlink" xml:space="preserve" xmlns:serif="http://www.serif.com/" style="fill-rule:evenodd;clip-rule:evenodd;stroke-linejoin:round;stroke-miterlimit:2;">
    <path d="M96,0L32,0C14.445,0 0,14.445 0,32L0,96L128,96L128,32C128,14.445 113.555,0 96,0ZM0,384L128,384L128,128L0,128L0,384ZM0,480C0,497.555 14.445,512 32,512L96,512C113.555,512 128,497.555 128,480L128,416L0,416L0,480ZM513.62,462.22L401.08,42.71L340.82,58.85L453.17,477.65C453.28,478.04 453.37,478.44 453.46,478.83L513.75,462.68C513.71,462.53 513.66,462.38 513.62,462.22ZM160,480C160,497.555 174.445,512 192,512L256,512C273.555,512 288,497.555 288,480L288,416L160,416L160,480ZM256,0L192,0C174.445,0 160,14.445 160,32L160,96L284.79,96L276.79,66.35C273.961,55.891 278.569,44.754 287.96,39.35L287.96,32C287.96,14.46 273.54,0.022 256,0ZM160,384L288,384L288,128L160,128L160,384Z" style="fill-opacity:0.4;fill-rule:nonzero;"/>
    <path d="M0,416L128,416L128,384L0,384L0,416ZM0,128L128,128L128,96L0,96L0,128ZM575.17,445.65L460.39,17.78C457.044,5.117 443.876,-2.555 431.21,0.78L431.12,0.78L415.73,5C403.057,8.439 395.439,21.674 398.83,34.36L513.62,462.22C516.966,474.883 530.134,482.555 542.8,479.22L542.89,479.22L558.27,475C570.938,471.561 578.555,458.333 575.17,445.65ZM160,416L288,416L288,384L160,384L160,416ZM338.39,49.78C335.044,37.117 321.876,29.445 309.21,32.78L309.12,32.78L293.73,37C281.057,40.439 273.439,53.674 276.83,66.36L284.83,96.01L160,96.01L160,128.01L288,128.01L288,108L391.62,494.22C394.966,506.883 408.134,514.555 420.8,511.22L420.89,511.22L436.27,507C448.929,503.56 456.542,490.347 453.17,477.67L338.39,49.78Z" style="fill-rule:nonzero;"/>
</svg>
